<svg width="1200" height="330" viewBox="0 0 610 168" fill="none" xmlns="http://www.w3.org/2000/svg">
<path d="M273.096 97.9262C273.502 97.5205 273.705 96.9119 274.111 96.709L298.456 113.548C287.298 129.98 266.604 139.11 246.723 136.269C235.767 134.849 225.218 130.183 217.306 122.88C197.627 104.824 193.367 71.3497 212.031 49.6421C221.769 38.484 236.782 31.5863 251.795 31.1805C251.795 31.1805 251.997 31.1805 252.2 31.1805C268.227 31.5863 284.457 39.0926 294.804 51.6709L271.676 70.5382L271.473 70.1324C263.967 61.6117 250.577 58.1628 240.231 64.452C233.942 68.1037 229.276 74.7985 229.276 82.102C229.073 91.4342 234.144 100.969 243.477 104.824C253.62 108.881 265.996 107.461 273.096 97.9262Z" fill="#F9F35C"/>
<path d="M346.505 29.3547C364.764 29.5575 382.414 39.9041 391.34 55.5255C403.919 77.233 399.658 107.461 379.776 125.111L379.371 125.314C363.547 138.298 339.405 141.138 320.334 130.183C301.264 119.228 290.309 95.2889 294.164 73.3784C298.424 49.4392 321.146 30.1662 345.491 29.5575C346.099 29.3547 346.302 29.3547 346.505 29.3547ZM360.503 102.592C371.053 93.6659 372.473 73.7842 360.503 64.452C356.446 61.206 351.78 59.1772 346.302 58.9743C334.13 58.9743 322.972 70.5382 323.58 82.3049C324.189 95.086 332.507 107.461 347.519 107.461C351.983 107.461 357.055 105.433 360.503 102.592Z" fill="#F9F35C"/>
<path d="M474.489 97.9262C474.894 97.5205 475.097 96.9119 475.503 96.709L499.848 113.548C488.69 129.98 467.997 139.11 448.115 136.269C437.16 134.849 426.61 130.183 418.698 122.88C399.019 104.824 394.759 71.3497 413.424 49.6421C423.161 38.484 438.174 31.5863 453.187 31.1805C453.187 31.1805 453.39 31.1805 453.593 31.1805C469.62 31.5863 485.85 39.0926 496.196 51.6709L473.069 70.5382L472.866 70.1324C465.359 61.6117 451.97 58.1628 441.623 64.452C435.334 68.1037 430.668 74.7985 430.668 82.102C430.465 91.4342 435.537 100.969 444.869 104.824C455.013 108.881 467.388 107.461 474.489 97.9262Z" fill="#F9F35C"/>
<path d="M547.897 29.3547C566.156 29.5575 583.806 39.9041 592.733 55.5255C605.311 77.233 601.05 107.461 581.169 125.111L580.763 125.314C564.939 138.298 540.797 141.138 521.727 130.183C502.656 119.228 491.701 95.2889 495.556 73.3784C499.816 49.4392 522.538 30.1662 546.883 29.5575C547.492 29.3547 547.695 29.3547 547.897 29.3547ZM561.896 102.592C572.445 93.6659 573.865 73.7842 561.896 64.452C557.838 61.206 553.172 59.1772 547.695 58.9743C535.522 58.9743 524.364 70.5382 524.973 82.3049C525.581 95.086 533.899 107.461 548.912 107.461C553.375 107.461 558.447 105.433 561.896 102.592Z" fill="#F9F35C"/>
<g clip-path="url(#clip0_9346_216)">
<path d="M93.2919 151.316L90.2583 164.555C130.424 159.855 161.6 125.611 161.6 84.0539C161.6 39.2903 125.424 3 80.8018 3C36.1794 3 0 39.2903 0 84.0539C0 125.746 31.3818 160.082 71.7436 164.6C71.0856 152.878 74.5958 141.291 71.58 129.722C68.6139 118.351 56.4297 108.737 46.6673 102.716C43.5376 100.789 36.0692 97.7276 33.9602 95.7066C29.7423 91.6682 33.1067 86.1166 36.2541 82.6834C39.7394 78.885 43.9893 76.1336 48.9327 79.3268C54.6301 83.0069 52.4322 94.4613 59.2214 97.7276C67.5506 101.735 74.1193 90.2559 74.258 83.4035C74.4607 73.3613 68.2227 69.0376 65.8257 60.3799C63.987 53.7396 62.1946 36.0275 67.3052 30.7855C70.4135 27.5993 80.3715 29.1194 84.1413 31.0116C89.7248 33.8152 90.0378 36.031 88.7575 41.7008C87.4665 47.4263 84.4222 54.0005 83.8212 59.7816C83.4442 63.3852 83.9919 65.8549 87.2531 67.8863C93.4875 71.7682 97.7445 64.5261 99.793 59.7851C100.579 57.9658 102.841 50.0038 103.698 49.3742C106.792 47.0958 114.435 49.7742 117.543 51.4508C122.391 54.0596 124.912 56.8145 122.743 62.4495C120.143 69.2116 107.251 76.551 101.401 81.4903C91.2114 90.0924 82.4413 101.091 86.0582 115.217C88.4232 124.452 98.8613 125.555 103.993 117.694C106.07 114.514 106.063 110.25 110.637 109.613C114.705 109.046 118.887 110.403 121.238 113.78C123.354 116.821 122.871 117.888 120.875 120.668C113.019 131.611 97.6023 137.921 93.2955 151.312L93.2919 151.316ZM41.5887 70.509C36.8694 70.509 33.0427 66.7662 33.0427 62.1504C33.0427 57.5345 36.8694 53.7918 41.5887 53.7918C46.3081 53.7918 50.1348 57.5345 50.1348 62.1504C50.1348 66.7662 46.3081 70.509 41.5887 70.509Z" fill="#F9F35C"/>
</g>
<defs>
<clipPath id="clip0_9346_216">
<rect width="161.6" height="161.6" fill="white" transform="translate(0 3)"/>
</clipPath>
</defs>
</svg>
