<svg width="1200" height="1200" viewBox="0 0 372 372" fill="none" xmlns="http://www.w3.org/2000/svg">
<path d="M93.7761 270.531C94.071 270.236 94.2185 269.794 94.5135 269.646L112.212 281.887C104.1 293.833 89.0566 300.47 74.6032 298.405C66.6391 297.373 58.9699 293.981 53.218 288.672C38.9121 275.545 35.8149 251.211 49.3834 235.43C56.4627 227.318 67.3765 222.304 78.2903 222.009C78.2903 222.009 78.4378 222.009 78.5852 222.009C90.2365 222.304 102.035 227.761 109.557 236.905L92.7437 250.621L92.5962 250.326C87.1393 244.131 77.4054 241.624 69.8837 246.196C65.3117 248.851 61.9196 253.718 61.9196 259.027C61.7721 265.812 65.4592 272.743 72.2434 275.545C79.6176 278.495 88.6141 277.463 93.7761 270.531Z" fill="#000000"/>
<path d="M147.142 220.681C160.416 220.829 173.247 228.351 179.736 239.707C188.88 255.488 185.783 277.463 171.33 290.294L171.035 290.441C159.531 299.88 141.98 301.945 128.117 293.981C114.253 286.017 106.289 268.614 109.091 252.685C112.189 235.282 128.707 221.271 146.405 220.829C146.847 220.681 146.995 220.681 147.142 220.681ZM157.319 273.923C164.988 267.434 166.02 252.98 157.319 246.196C154.369 243.836 150.977 242.362 146.995 242.214C138.146 242.214 130.034 250.621 130.477 259.175C130.919 268.466 136.966 277.463 147.88 277.463C151.124 277.463 154.811 275.988 157.319 273.923Z" fill="#000000"/>
<path d="M240.183 270.531C240.478 270.236 240.625 269.794 240.92 269.646L258.618 281.887C250.506 293.833 235.463 300.47 221.01 298.405C213.046 297.373 205.376 293.981 199.625 288.672C185.319 275.545 182.221 251.211 195.79 235.43C202.869 227.318 213.783 222.304 224.697 222.009C224.697 222.009 224.844 222.009 224.992 222.009C236.643 222.304 248.442 227.761 255.963 236.905L239.15 250.621L239.003 250.326C233.546 244.131 223.812 241.624 216.29 246.196C211.718 248.851 208.326 253.718 208.326 259.027C208.179 265.812 211.866 272.743 218.65 275.545C226.024 278.495 235.021 277.463 240.183 270.531Z" fill="#000000"/>
<path d="M293.549 220.681C306.822 220.829 319.653 228.351 326.143 239.707C335.287 255.488 332.189 277.463 317.736 290.294L317.441 290.441C305.937 299.88 288.387 301.945 274.523 293.981C260.66 286.017 252.696 268.614 255.498 252.685C258.595 235.282 275.113 221.271 292.811 220.829C293.254 220.681 293.401 220.681 293.549 220.681ZM303.725 273.923C311.394 267.434 312.427 252.98 303.725 246.196C300.775 243.836 297.383 242.362 293.401 242.214C284.552 242.214 276.441 250.621 276.883 259.175C277.325 268.466 283.372 277.463 294.286 277.463C297.531 277.463 301.218 275.988 303.725 273.923Z" fill="#000000"/>
<g clip-path="url(#clip0_9346_219)">
<path d="M198.75 182.814L195.604 196.543C237.259 191.67 269.59 156.155 269.59 113.058C269.59 66.6354 232.073 29 185.797 29C139.52 29 102 66.6354 102 113.058C102 156.296 134.545 191.904 176.403 196.59C175.721 184.433 179.361 172.417 176.233 160.419C173.157 148.627 160.521 138.656 150.397 132.412C147.151 130.413 139.406 127.239 137.219 125.143C132.845 120.955 136.334 115.197 139.598 111.637C143.212 107.698 147.62 104.844 152.747 108.156C158.655 111.973 156.376 123.852 163.417 127.239C172.054 131.394 178.867 119.49 179.01 112.384C179.221 101.969 172.752 97.4854 170.266 88.5068C168.359 81.6203 166.5 63.2517 171.8 57.8155C175.023 54.5111 185.351 56.0875 189.26 58.0499C195.051 60.9575 195.375 63.2553 194.047 69.1353C192.709 75.073 189.551 81.8909 188.928 87.8863C188.537 91.6235 189.105 94.1847 192.487 96.2914C198.953 100.317 203.368 92.8067 205.492 87.8899C206.307 86.0033 208.653 77.746 209.542 77.0931C212.751 74.7303 220.677 77.508 223.9 79.2467C228.927 81.9522 231.542 84.8092 229.292 90.6531C226.596 97.6658 213.226 105.277 207.159 110.4C196.592 119.321 187.497 130.727 191.248 145.377C193.701 154.954 204.526 156.098 209.848 147.945C212.002 144.648 211.994 140.225 216.737 139.565C220.957 138.977 225.294 140.384 227.732 143.887C229.927 147.04 229.425 148.147 227.356 151.029C219.209 162.378 203.22 168.922 198.754 182.81L198.75 182.814ZM145.13 99.0113C140.236 99.0113 136.267 95.1298 136.267 90.3429C136.267 85.5559 140.236 81.6744 145.13 81.6744C150.025 81.6744 153.993 85.5559 153.993 90.3429C153.993 95.1298 150.025 99.0113 145.13 99.0113Z" fill="#000000"/>
</g>
<defs>
<clipPath id="clip0_9346_219">
<rect width="167.59" height="167.59" fill="white" transform="translate(102 29)"/>
</clipPath>
</defs>
</svg>
